<svg width="1024" height="1024" xmlns="http://www.w3.org/2000/svg" p-id="56791" version="1.1" class="icon" t="1691672911947"><path transform="rotate(90 510.607 510.568)" stroke="null" id="svg_1" p-id="56792" fill="#000000" d="m511.95461,610.81383c26.76734,0 51.94506,10.42674 70.87888,29.36055l101.8425,102.46218a33.40866,33.40866 0 1 1 -47.39853,47.11563l-93.26133,-93.82713l0,208.93879a33.40866,33.40866 0 1 1 -66.83078,0l0,-206.34558l-91.69867,91.34842a33.30762,33.30762 0 0 1 -23.58139,9.7397a33.40866,33.40866 0 0 1 -23.5814,-57.09107l102.7855,-102.38136a99.5524,99.5524 0 0 1 70.83172,-29.32013l0.01347,0zm392.9558,-131.99111a33.40866,33.40866 0 1 1 0,66.83077l-788.60585,0a33.40866,33.40866 0 1 1 0,-66.83077l788.60585,0zm-394.30293,-395.96662a33.40866,33.40866 0 0 1 33.40866,33.40866l0,208.93878l93.26133,-93.81365a33.40866,33.40866 0 1 1 47.39853,47.10889l-101.77515,102.38809a99.63995,99.63995 0 0 1 -70.95297,29.43464a99.58607,99.58607 0 0 1 -70.88562,-29.36054l-102.7316,-102.34767a33.40866,33.40866 0 1 1 47.16277,-47.34464l91.69867,91.34842l0,-206.34558a33.40866,33.40866 0 0 1 33.41539,-33.41539z"/></svg>