<svg t="1690711679488" class="icon" viewBox="0 0 1024 1024" version="1.1" xmlns="http://www.w3.org/2000/svg" p-id="5166" width="32" height="32"><path d="M917.219556 277.105778h-108.714667V200.647111a72.817778 72.817778 0 0 0-72.760889-72.760889h-124.871111v-11.605333a53.361778 53.361778 0 0 0-53.248-53.248h-39.253333V55.751111c0-15.928889-13.084444-29.013333-29.013334-29.013333H404.935111c-15.928889 0-29.013333 13.084444-29.013333 29.013333v7.281778h-39.253334a53.361778 53.361778 0 0 0-53.248 53.248v11.605333H152.462222A72.817778 72.817778 0 0 0 79.758222 200.647111v610.133333A72.817778 72.817778 0 0 0 152.462222 883.484444H261.12v62.008889a72.817778 72.817778 0 0 0 72.760889 72.704h389.802667l266.24-266.126222V349.923556a72.817778 72.817778 0 0 0-72.760889-72.817778zM331.832889 116.280889c0-2.616889 2.275556-4.835556 4.892444-4.835556h220.728889c2.673778 0 4.892444 2.275556 4.892445 4.835556v74.353778c0 2.616889-2.275556 4.892444-4.835556 4.892444H336.725333a4.892444 4.892444 0 0 1-4.835555-4.892444V116.280889zM261.233778 349.923556v485.262222H152.462222a24.405333 24.405333 0 0 1-24.291555-24.291556V200.647111c0-13.368889 10.922667-24.291556 24.291555-24.291555h131.015111v14.279111c0 29.354667 23.893333 53.304889 53.248 53.304889h220.728889c29.411556 0 53.304889-23.893333 53.304889-53.304889V176.355556h124.928c13.368889 0 24.291556 10.922667 24.291556 24.291555V277.048889h-426.097778a72.817778 72.817778 0 0 0-72.704 72.817778z m476.16 586.24v-144.554667c0-13.368889 10.808889-24.234667 24.177778-24.234667h144.554666l-168.732444 168.789334z m204.231111-217.201778h-180.053333c-40.049778 0-72.590222 32.540444-72.590223 72.647111v178.232889H333.937778a24.405333 24.405333 0 0 1-24.348445-24.291556V349.923556c0-13.312 10.979556-24.291556 24.348445-24.291556h583.281778c13.368889 0 24.291556 10.979556 24.291555 24.291556v369.038222z" fill="#000000" p-id="5167"></path><path d="M835.982222 476.387556h-435.768889a24.234667 24.234667 0 0 0 0 48.412444h435.768889a24.291556 24.291556 0 0 0 24.234667-24.177778 24.291556 24.291556 0 0 0-24.234667-24.234666z m-193.649778 135.566222H400.270222a24.234667 24.234667 0 0 0 0 48.412444h242.062222a24.291556 24.291556 0 0 0 24.177778-24.177778 24.291556 24.291556 0 0 0-24.177778-24.234666z" fill="#000000" p-id="5168"></path></svg>