<svg t="1691069327549" class="icon" viewBox="0 0 1024 1024" version="1.1" xmlns="http://www.w3.org/2000/svg" p-id="2313" width="32" height="32"><path d="M512 960C264.57 960 64 759.43 64 512S264.57 64 512 64s448 200.57 448 448-200.57 448-448 448z m0.43-83.66c201.01 0 364.01-163.01 364.01-364.01s-163-364.02-364.01-364.02-364.01 163.01-364.01 364.01 162.9 364.02 364.01 364.02zM371.99 343.92h280.03c15.44 0 27.96 12.52 27.96 27.96v280.13c0 15.44-12.52 27.96-27.96 27.96H371.99c-15.44 0-27.96-12.52-27.96-27.96V371.99c0-15.55 12.52-28.07 27.96-28.07z" p-id="2314"></path></svg>