<svg t="1689959453982" class="icon" viewBox="0 0 1024 1024" version="1.1" xmlns="http://www.w3.org/2000/svg" p-id="4405" width="32" height="32"><path d="M847.424 929.130667H174.634667c-45.12 0-81.365333-17.749333-99.456-48.682667-18.112-30.933333-15.914667-71.317333 6.058666-110.805333L420.693333 159.68c22.101333-39.765333 54.954667-62.570667 90.112-62.570667 35.157333 0 67.989333 22.784 90.154667 62.506667L940.757333 769.706667c21.973333 39.466667 24.256 79.850667 6.101334 110.784-18.069333 30.933333-54.336 48.64-99.413334 48.64zM510.848 161.130667c-11.178667 0-23.978667 11.093333-34.346667 29.717333L137.002667 800.896c-10.624 19.136-13.12 36.330667-6.762667 47.189333 6.357333 10.816 22.528 17.045333 44.373333 17.045334h672.789334c21.888 0 38.037333-6.186667 44.373333-17.045334 6.336-10.816 3.882667-28.010667-6.784-47.146666L545.194667 190.848c-10.346667-18.602667-23.210667-29.717333-34.346667-29.717333z m0.192 479.125333c-17.621333 0-31.936-14.314667-31.936-32.021333V320.106667c0-17.664 14.293333-32 31.936-32a32 32 0 0 1 31.936 32v288.149333c0 17.706667-14.314667 32-31.936 32zM463.146667 752.426667a47.957333 47.957333 0 0 0 47.893333 48.021333 47.957333 47.957333 0 0 0 47.893333-48 47.957333 47.957333 0 0 0-47.893333-48.042667 47.957333 47.957333 0 0 0-47.893333 48.021334z" fill="#000000" p-id="4406"></path></svg>