<svg t="1684489122123" class="icon" viewBox="0 0 1024 1024" version="1.1" xmlns="http://www.w3.org/2000/svg" p-id="10275" width="32" height="32"><path d="M911.702378 241.62306 505.885745 241.62306l-51.287083-83.901899c-8.524141-14.069437-23.775496-21.897729-40.220027-21.897729L112.327298 135.823432c-25.966395 0-47.037293 21.054525-47.037293 47.021943l0 658.308227c0 25.968441 21.070898 47.021943 47.037293 47.021943l799.37508 0c25.967418 0 47.006594-21.054525 47.006594-47.021943L958.708971 290.171776C958.708971 264.204357 937.669796 241.62306 911.702378 241.62306zM864.665085 794.131659 159.334915 794.131659 159.334915 229.867318 387.888308 229.867318l51.280944 83.901899c8.524141 14.069437 23.774473 21.897729 40.220027 21.897729l385.274784 0L864.664062 794.131659z" p-id="10276"></path></svg>