<svg t="1706240716909" class="icon" viewBox="0 0 1024 1024" version="1.1" xmlns="http://www.w3.org/2000/svg" p-id="7536" width="128" height="128"><path d="M877 538.5l-540 8-1-125-183 171 188 168-2-127 540-7z" fill="#000000" p-id="7537"></path><path d="M796 242.5l3 297h77l-2-297zM932 30.5h63v62h-63zM807 30.5h62v62h-62zM932 155.5h63v62h-63zM682 30.5h63v62h-63zM932 280.5h63v62h-63zM557 30.5h62v62h-62zM932 405.5h63v62h-63zM432 30.5h63v62h-63zM932 530.5h63v62h-63zM307 30.5h62v62h-62zM932 655.5h63v62h-63zM182 30.5h63v62h-63zM932 780.5h63v62h-63zM57 30.5h62v62H57zM932 905.5h63v62h-63zM57 155.5h62v62H57zM807 905.5h62v62h-62zM57 280.5h62v62H57zM682 905.5h63v62h-63zM57 405.5h62v62H57zM557 905.5h62v62h-62zM57 530.5h62v62H57zM432 905.5h63v62h-63zM57 655.5h62v62H57zM307 905.5h62v62h-62zM57 780.5h62v62H57zM182 905.5h63v62h-63zM57 905.5h62v62H57z" fill="#000000" p-id="7538"></path></svg>