<svg t="1697631034694" class="icon" viewBox="0 0 1024 1024" version="1.1" xmlns="http://www.w3.org/2000/svg" p-id="4181" width="128" height="128"><path d="M892.928 128q28.672 0 48.64 19.968t19.968 48.64l0 52.224q0 28.672-19.968 48.64t-48.64 19.968l-759.808 0q-28.672 0-48.64-19.968t-19.968-48.64l0-52.224q0-28.672 19.968-48.64t48.64-19.968l759.808 0zM892.928 448.512q28.672 0 48.64 19.968t19.968 48.64l0 52.224q0 28.672-19.968 48.64t-48.64 19.968l-759.808 0q-28.672 0-48.64-19.968t-19.968-48.64l0-52.224q0-28.672 19.968-48.64t48.64-19.968l759.808 0zM892.928 769.024q28.672 0 48.64 19.968t19.968 48.64l0 52.224q0 28.672-19.968 48.64t-48.64 19.968l-759.808 0q-28.672 0-48.64-19.968t-19.968-48.64l0-52.224q0-28.672 19.968-48.64t48.64-19.968l759.808 0z" p-id="4182" fill="#000000"></path></svg>