<svg t="1691050937509" class="icon" viewBox="0 0 1024 1024" version="1.1" xmlns="http://www.w3.org/2000/svg" p-id="10407" width="32" height="32"><path d="M316 672h60c4.4 0 8-3.6 8-8V360c0-4.4-3.6-8-8-8h-60c-4.4 0-8 3.6-8 8v304c0 4.4 3.6 8 8 8zM512 622c22.1 0 40-17.9 40-39 0-23.1-17.9-41-40-41s-40 17.9-40 41c0 21.1 17.9 39 40 39zM512 482c22.1 0 40-17.9 40-39 0-23.1-17.9-41-40-41s-40 17.9-40 41c0 21.1 17.9 39 40 39z" p-id="10408"></path><path d="M880 112H144c-17.7 0-32 14.3-32 32v736c0 17.7 14.3 32 32 32h736c17.7 0 32-14.3 32-32V144c0-17.7-14.3-32-32-32z m-40 728H184V184h656v656z" p-id="10409"></path><path d="M648 672h60c4.4 0 8-3.6 8-8V360c0-4.4-3.6-8-8-8h-60c-4.4 0-8 3.6-8 8v304c0 4.4 3.6 8 8 8z" p-id="10410"></path></svg>