<svg t="1708524270513" class="icon" viewBox="0 0 1024 1024" version="1.1" xmlns="http://www.w3.org/2000/svg" p-id="13474" width="32" height="32"><path d="M20.48 50.062222v748.657778h977.351111V50.062222H20.48z m85.333333 663.324445v-42.666667l262.826667-261.688889 304.355556 304.355556H105.813333z m806.684445 0h-118.897778l-157.013333-157.582223 97.28-97.848888 178.631111 179.2v76.231111z m0-197.404445L733.866667 337.351111l-157.582223 158.151111-207.644444-207.644444-262.826667 262.257778V135.395556h806.684445v380.586666z" fill="#2c2c2c" p-id="13475"></path><path d="M854.471111 243.484444c0 37.546667-30.663111 67.697778-68.209778 67.697778a67.982222 67.982222 0 1 1 0-135.964444c37.546667 0 68.209778 30.151111 68.209778 68.266666zM19.342222 867.555556h972.856889v85.333333H19.342222z" fill="#2c2c2c" p-id="13476"></path></svg>