<svg t="1691054624427" class="icon" viewBox="0 0 1024 1024" version="1.1" xmlns="http://www.w3.org/2000/svg" p-id="19299" width="32" height="32"><path d="M896 346.8c-0.1 0 0 0 0 0 0-0.9-0.1-1.7-0.2-2.5 0-0.1 0-0.3-0.1-0.4-0.2-1.7-0.5-3.3-1-4.9-0.5-1.7-1-3.3-1.7-4.9v-0.1c-0.3-0.8-0.7-1.5-1.1-2.3v-0.1c-0.4-0.7-0.8-1.5-1.2-2.2-0.1-0.1-0.1-0.2-0.2-0.3-0.4-0.6-0.8-1.2-1.3-1.9-0.1-0.1-0.1-0.2-0.2-0.2-0.5-0.6-1-1.3-1.5-1.9-0.1-0.1-0.2-0.3-0.4-0.4-0.5-0.6-1-1.2-1.6-1.7l-0.1-0.1L637.3 74.5c-0.6-0.6-1.2-1.1-1.8-1.6-0.1-0.1-0.3-0.2-0.4-0.4-0.6-0.5-1.2-1-1.9-1.5-0.1 0-0.1-0.1-0.2-0.1-0.6-0.5-1.3-0.9-1.9-1.3-0.1-0.1-0.2-0.1-0.3-0.2-0.7-0.4-1.4-0.9-2.2-1.3-0.8-0.4-1.5-0.8-2.3-1.1h-0.1c-1.6-0.7-3.2-1.3-4.9-1.7-1.6-0.4-3.2-0.8-4.9-1-0.1 0-0.3 0-0.4-0.1-1.4-0.2-2.8-0.3-4.3-0.3H164c-19.9 0-36 16.1-36 36v823.3c0 19.9 16.1 36 36 36h696c19.9 0 36-16.1 36-36V348.6v-1.8zM647.8 186.9l125.4 125.6H647.8V186.9zM340.7 887.2V642.4h342v244.9h-342z m414 0V606.4c0-19.9-16.1-36-36-36h-414c-19.9 0-36 16.1-36 36v280.9H200V135.9h375.8v212.7c0 19.9 16.1 36 36 36H824v502.7h-69.3z" fill="#333333" p-id="19300"></path><path d="M304.7 347.8c-19.9 0-36 16.1-36 36v14.4c0 19.9 16.1 36 36 36s36-16.1 36-36v-14.4c0-19.9-16.1-36-36-36z" fill="#333333" p-id="19301"></path></svg>