<svg t="1690711586121" class="icon" viewBox="0 0 1024 1024" version="1.1" xmlns="http://www.w3.org/2000/svg" p-id="4142" width="32" height="32"><path d="M835.3 250.9v522.3H188.7V250.9h646.6m49.8-49.8H138.9v621.8H885V201.1h0.1z" p-id="4143"></path><path d="M138.9 101.6v99.5H64.3v49.8H188.7V101.6zM885.1 922.4v-99.5h74.6v-49.8H835.3v149.3zM511 705.4H297.5c-7.8 0-20.4-2.9-23.3-7.8-2.9-4.9 1.9-16.5 5.8-23.3 26.2-39.8 53.4-79.6 79.6-119.4 8.7-12.6 17.5-13.6 31.1-7.8 44.6 21.4 90.3 42.7 135.9 64.1 12.6 5.8 28.1 1.9 35.9-9.7 24.3-37.9 49.5-74.7 75.7-111.6 4.9-6.8 13.6-17.5 20.4-17.5 7.8 0 13.6 12.6 16.5 20.4 24.3 60.2 47.6 121.3 70.9 181.5 9.7 25.2 5.8 31.1-23.3 31.1H511z m-78.6-298c0 29.1-25.2 52.4-54.4 51.4-29.1-1-51.4-23.3-51.4-51.4 0-29.1 24.3-52.4 54.4-51.4 27.1 0.9 51.4 24.2 51.4 51.4z" p-id="4144"></path></svg>