<?xml version="1.0" standalone="no"?><!DOCTYPE svg PUBLIC "-//W3C//DTD SVG 1.1//EN" "http://www.w3.org/Graphics/SVG/1.1/DTD/svg11.dtd"><svg t="1741855197442" class="icon" viewBox="0 0 1024 1024" version="1.1" xmlns="http://www.w3.org/2000/svg" p-id="13045" xmlns:xlink="http://www.w3.org/1999/xlink" width="200" height="200"><path d="M112 240a128 128 0 0 1 128-128h112a128 128 0 0 1 128 128v544a128 128 0 0 1-128 128h-112a128 128 0 0 1-128-128V240z m128-48a48 48 0 0 0-48 48v544a48 48 0 0 0 48 48h112a48 48 0 0 0 48-48V240a48 48 0 0 0-48-48h-112zM544 240a128 128 0 0 1 128-128h112a128 128 0 0 1 128 128v544a128 128 0 0 1-128 128h-112a128 128 0 0 1-128-128V240z m128-48a48 48 0 0 0-48 48v544a48 48 0 0 0 48 48h112a48 48 0 0 0 48-48V240a48 48 0 0 0-48-48h-112z" fill="#2c2c2c" p-id="13046"></path></svg>