<svg t="1716381291500" class="icon" viewBox="0 0 1024 1024" version="1.1" xmlns="http://www.w3.org/2000/svg" p-id="4639" width="200" height="200"><path d="M329.3 513.2c0-20-16.2-36.2-36.2-36.2H121.6c-20 0-36.2 16.2-36.2 36.2 0 20 16.2 36.2 36.2 36.2h171.5c20 0 36.2-16.2 36.2-36.2zM902.4 477H730.9c-20 0-36.2 16.2-36.2 36.2 0 20 16.2 36.2 36.2 36.2h171.5c20 0 36.2-16.2 36.2-36.2 0.1-20-16.2-36.2-36.2-36.2zM512.4 706.4c-20 0-36.2 16.2-36.2 36.2V902c0 20 16.2 36.2 36.2 36.2 20 0 36.2-16.2 36.2-36.2V742.7c0-20-16.2-36.3-36.2-36.3zM512.4 85.7c-20 0-36.2 16.2-36.2 36.2v171.5c0 20 16.2 36.2 36.2 36.2 20 0 36.2-16.2 36.2-36.2V121.9c0-20-16.2-36.2-36.2-36.2zM330.8 640.6L209.6 761.8c-14.1 14.1-14.1 37.1 0 51.2 7.1 7.1 16.3 10.6 25.6 10.6s18.5-3.5 25.6-10.6l121.3-121.3c14.1-14.1 14.1-37.1 0-51.2-14.2-14.1-37.1-14.1-51.3 0.1zM665.4 393.4c9.3 0 18.5-3.5 25.6-10.6l121.3-121.3c14.1-14.1 14.1-37.1 0-51.2-14.1-14.1-37.1-14.1-51.2 0L639.8 331.5c-14.1 14.1-14.1 37.1 0 51.2 7.1 7.1 16.3 10.7 25.6 10.7zM700.5 649c-14.1-14.1-37.1-14.1-51.2 0-14.1 14.1-14.1 37.1 0 51.2L762 813c7.1 7.1 16.3 10.6 25.6 10.6s18.5-3.5 25.6-10.6c14.1-14.1 14.1-37.1 0-51.2L700.5 649zM260.8 211.3c-14.1-14.1-37.1-14.1-51.2 0-14.1 14.1-14.1 37.1 0 51.2l121.3 121.3c7.1 7.1 16.3 10.6 25.6 10.6s18.5-3.5 25.6-10.6c14.1-14.1 14.1-37.1 0-51.2L260.8 211.3z" fill="#2c2c2c" p-id="4640"></path></svg>